# xmcd
#
# Track frame offsets: 
#        150
#        16393
#        29525
#        44066
#        58188
#        73006
#        87558
#        99933
#        114546
#        129500
#        144465
#        158260
#        171919
#        187178
#        201554
#        215944
#        231805
#        245370
#        259862
#        273941
#        286392
#        299990
#        313724
#
# Disc length: 4372 seconds
#
# Revision: 0
# Processed by: cddbd v1.5.1PL2 Copyright (c) Steve Scherf et al.
# Submitted via: ExactAudioCopy v0.95b3
#
DISCID=73111217
DTITLE=Mississippi Sheiks - Show Me What You Got
DYEAR=1999
DGENRE=Blues
TTITLE0=Don't Wake Me Up
TTITLE1=Please Don't Give My Love Away
TTITLE2=The Sheik Waltz
TTITLE3=Livin' in a Strain
TTITLE4=It's Done Got Wet
TTITLE5=Alberta Blues
TTITLE6=Fingering with Your Fingers
TTITLE7=Blood in My Eyes for You
TTITLE8=Church Bell Blues
TTITLE9=She's a Bad Girl
TTITLE10=Sitting on Top of the World
TTITLE11=Sales Tax
TTITLE12=Unhappy Blues
TTITLE13=She's Got Something Crazy
TTITLE14=The Jazz Fiddler
TTITLE15=Stop and Listen Blues
TTITLE16=Lean to One Woman
TTITLE17=She Ain't No Good
TTITLE18=Jake Leg Blues
TTITLE19=Stir It Now
TTITLE20=She's Crazy About Her Lovin'
TTITLE21=We Are Both Feeling Good
TTITLE22=Show Me What You Got
EXTD=
EXTT0=
EXTT1=
EXTT2=
EXTT3=
EXTT4=
EXTT5=
EXTT6=
EXTT7=
EXTT8=
EXTT9=
EXTT10=
EXTT11=
EXTT12=
EXTT13=
EXTT14=
EXTT15=
EXTT16=
EXTT17=
EXTT18=
EXTT19=
EXTT20=
EXTT21=
EXTT22=
PLAYORDER=
